<?xml version="1.0" encoding="UTF-8"?>
<svg width="1200pt" height="1200pt" version="1.1" viewBox="0 0 1200 1200" xmlns="http://www.w3.org/2000/svg">
 <path d="m13.199 958.8v-49.199h68.402v-511.2c0-40.801 32.398-73.199 73.199-73.199h284.4c-6 24-9.6016 49.199-9.6016 75.602 0 8.3984 0 15.602 1.1992 24h-250.8v484.8h254.4v4.8008c0 15.602 12 27.602 27.602 27.602h139.2c15.602 0 27.602-12 27.602-27.602v-4.8008h254.4v-207.6h64.801c12 0 24-1.1992 36-2.3984v208.8h68.402v49.199c0 44.398-36 80.398-80.398 80.398h-878.4c-44.402 1.1992-80.402-34.801-80.402-79.199zm476.4-558c0-132 108-240 240-240h217.2c132 0 240 108 240 240s-108 240-240 240h-162l-110.4 110.4c-7.1992 7.1992-20.398 2.3984-20.398-8.3984v-114c-96.004-32.402-164.4-121.2-164.4-228zm142.8 1.1992c0 13.199 2.3984 25.199 7.1992 37.199 4.8008 12 12 22.801 21.602 32.398 9.6016 9.6016 20.398 16.801 32.398 21.602s24 7.1992 37.199 7.1992 25.199-2.3984 37.199-7.1992 22.801-12 32.398-21.602l7.1992-7.1992-31.199-31.199-7.1992 7.1992c-10.801 10.801-24 15.602-38.398 15.602s-27.602-6-38.398-15.602c-10.801-10.801-15.602-24-15.602-38.398s6-27.602 15.602-38.398c10.801-10.801 24-15.602 38.398-15.602s27.602 6 38.398 15.602l108 108c9.6016 9.6016 20.398 16.801 32.398 21.602s24 7.1992 37.199 7.1992 25.199-2.3984 37.199-7.1992 22.801-12 32.398-21.602c9.6016-9.6016 16.801-20.398 21.602-32.398 4.8008-12 7.1992-24 7.1992-37.199 0-13.199-2.3984-25.199-7.1992-37.199-4.8008-12-12-22.801-21.602-32.398-9.6016-9.6016-20.398-16.801-32.398-21.602-12-4.8008-24-7.1992-37.199-7.1992s-25.199 2.3984-37.199 7.1992c-12 4.8008-22.801 12-32.398 21.602l-8.3984 8.3984 31.203 31.195 8.3984-8.3984c10.801-10.801 24-15.602 38.398-15.602s27.602 6 38.398 15.602c10.801 10.801 15.602 24 15.602 38.398s-6 27.602-15.602 38.398c-10.801 10.801-24 15.602-38.398 15.602s-27.602-6-38.398-15.602l-108-108c-9.6016-9.6016-20.398-16.801-32.398-21.602s-24-7.1992-37.199-7.1992-25.199 2.3984-37.199 7.1992-22.801 12-32.398 21.602c-9.6016 9.6016-16.801 20.398-21.602 32.398-4.8008 12.004-7.2031 24.004-7.2031 37.203z"/>
</svg>
